<?xml version="1.0" encoding="utf-8"?>
<!-- Generator: Adobe Illustrator 22.1.0, SVG Export Plug-In . SVG Version: 6.00 Build 0)  -->
<svg version="1.1" id="Layer_1" xmlns="http://www.w3.org/2000/svg" xmlns:xlink="http://www.w3.org/1999/xlink" x="0px" y="0px"
	 viewBox="0 0 239 239" style="enable-background:new 0 0 239 239;" xml:space="preserve">
<style type="text/css">
	.st0{opacity:0.1;fill:#744D60;}
	.st1{opacity:0.5;fill:#744D60;}
	.st2{opacity:0.8;fill:#744D60;}
	.st3{fill:#744D60;}
	.st4{fill:#E5C82A;}
	.st5{opacity:0.1;fill:#51AAAB;}
	.st6{opacity:0.5;fill:#51AAAB;}
	.st7{opacity:0.8;fill:#51AAAB;}
	.st8{fill:#51AAAB;}
	.st9{opacity:0.1;fill:#E5C82A;}
	.st10{opacity:0.5;fill:#E5C82A;}
	.st11{opacity:0.8;fill:#E5C82A;}
	.st12{opacity:0.1;fill:#738D57;}
	.st13{opacity:0.5;fill:#738D57;}
	.st14{opacity:0.8;fill:#738D57;}
	.st15{fill:#738D57;}
</style>
<g id="_x31_">
	<g>
		<circle class="st0" cx="27.5" cy="58.5" r="11.5"/>
		<circle class="st1" cx="11.5" cy="97.5" r="11.5"/>
		<circle class="st0" cx="11.5" cy="142.5" r="11.5"/>
		<circle class="st2" cx="27.5" cy="181.5" r="11.5"/>
		<polygon class="st3" points="82.7,94.2 54.1,94.2 39.7,119 54.1,143.8 82.7,143.8 97,119 		"/>
		<polygon class="st4" points="171.2,91.2 179.5,108 198,110.7 184.6,123.8 187.8,142.2 171.2,133.5 154.6,142.2 157.8,123.8 
			144.4,110.7 162.9,108 		"/>
	</g>
</g>
<g id="_x32_">
	<g>
		<circle class="st5" cx="180.5" cy="27.5" r="11.5"/>
		<circle class="st6" cx="141.5" cy="11.5" r="11.5"/>
		<circle class="st5" cx="96.5" cy="11.5" r="11.5"/>
		<circle class="st7" cx="57.5" cy="27.5" r="11.5"/>
		<rect x="99" y="46" class="st8" width="41" height="41"/>
	</g>
</g>
<g id="_x33_">
	<g>
		<circle class="st9" cx="211.5" cy="180.5" r="11.5"/>
		<circle class="st10" cx="227.5" cy="141.5" r="11.5"/>
		<circle class="st9" cx="227.5" cy="96.5" r="11.5"/>
		<circle class="st11" cx="211.5" cy="57.5" r="11.5"/>
	</g>
</g>
<g id="_x34_">
	<g>
		<circle class="st12" cx="58.5" cy="211.5" r="11.5"/>
		<circle class="st13" cx="97.5" cy="227.5" r="11.5"/>
		<circle class="st12" cx="142.5" cy="227.5" r="11.5"/>
		<circle class="st14" cx="181.5" cy="211.5" r="11.5"/>
		<circle class="st15" cx="119" cy="171" r="22"/>
	</g>
</g>
</svg>
